<?xml version="1.0" encoding="UTF-8" standalone="no"?>
<!-- Created with Inkscape (http://www.inkscape.org/) -->

<svg
   width="1696pt"
   height="416pt"
   viewBox="0 0 598.31115 146.75556"
   version="1.1"
   id="svg5"
   inkscape:version="1.1.1 (3bf5ae0d25, 2021-09-20)"
   sodipodi:docname="fig_ecs_system_data_movement.svg"
   xmlns:inkscape="http://www.inkscape.org/namespaces/inkscape"
   xmlns:sodipodi="http://sodipodi.sourceforge.net/DTD/sodipodi-0.dtd"
   xmlns="http://www.w3.org/2000/svg"
   xmlns:svg="http://www.w3.org/2000/svg">
  <sodipodi:namedview
     id="namedview7"
     pagecolor="#ffffff"
     bordercolor="#999999"
     borderopacity="1"
     inkscape:pageshadow="0"
     inkscape:pageopacity="0"
     inkscape:pagecheckerboard="0"
     inkscape:document-units="mm"
     showgrid="true"
     inkscape:zoom="0.46929648"
     inkscape:cx="444.28204"
     inkscape:cy="789.4796"
     inkscape:window-width="2400"
     inkscape:window-height="1321"
     inkscape:window-x="2391"
     inkscape:window-y="-9"
     inkscape:window-maximized="1"
     inkscape:current-layer="layer1"
     units="pt"
     fit-margin-top="0"
     fit-margin-left="0"
     fit-margin-bottom="0"
     fit-margin-right="0">
    <inkscape:grid
       type="xygrid"
       id="grid824"
       units="pt"
       spacingx="0.35277778"
       spacingy="0.35277778"
       empspacing="4"
       originx="84.666682"
       originy="-45.155573" />
  </sodipodi:namedview>
  <defs
     id="defs2">
    <rect
       x="1515.3333"
       y="811.33337"
       width="277.33334"
       height="85.333336"
       id="rect45135" />
    <rect
       x="86"
       y="480.66669"
       width="64"
       height="42.666668"
       id="rect10117" />
    <rect
       x="704"
       y="117.33334"
       width="288.00003"
       height="74.666672"
       id="rect30861" />
    <rect
       x="1024"
       y="597.33337"
       width="393.6138"
       height="152.55444"
       id="rect26303" />
    <marker
       style="overflow:visible"
       id="Arrow2Mend"
       refX="0"
       refY="0"
       orient="auto"
       inkscape:stockid="Arrow2Mend"
       inkscape:isstock="true">
      <path
         transform="scale(-0.6)"
         d="M 8.7185878,4.0337352 -2.2072895,0.01601326 8.7185884,-4.0017078 c -1.7454984,2.3720609 -1.7354408,5.6174519 -6e-7,8.035443 z"
         style="fill:context-stroke;fill-rule:evenodd;stroke:context-stroke;stroke-width:0.625;stroke-linejoin:round"
         id="path67406" />
    </marker>
    <marker
       style="overflow:visible"
       id="marker67808"
       refX="0"
       refY="0"
       orient="auto"
       inkscape:stockid="Arrow1Mend"
       inkscape:isstock="true">
      <path
         transform="matrix(-0.4,0,0,-0.4,-4,0)"
         style="fill:context-stroke;fill-rule:evenodd;stroke:context-stroke;stroke-width:1pt"
         d="M 0,0 5,-5 -12.5,0 5,5 Z"
         id="path67806" />
    </marker>
    <marker
       style="overflow:visible"
       id="Arrow1Send"
       refX="0"
       refY="0"
       orient="auto"
       inkscape:stockid="Arrow1Send"
       inkscape:isstock="true">
      <path
         transform="matrix(-0.2,0,0,-0.2,-1.2,0)"
         style="fill:context-stroke;fill-rule:evenodd;stroke:context-stroke;stroke-width:1pt"
         d="M 0,0 5,-5 -12.5,0 5,5 Z"
         id="path67394" />
    </marker>
    <marker
       style="overflow:visible"
       id="marker67710"
       refX="0"
       refY="0"
       orient="auto"
       inkscape:stockid="Arrow1Mend"
       inkscape:isstock="true">
      <path
         transform="matrix(-0.4,0,0,-0.4,-4,0)"
         style="fill:context-stroke;fill-rule:evenodd;stroke:context-stroke;stroke-width:1pt"
         d="M 0,0 5,-5 -12.5,0 5,5 Z"
         id="path67708" />
    </marker>
    <marker
       style="overflow:visible"
       id="marker67667"
       refX="0"
       refY="0"
       orient="auto"
       inkscape:stockid="Arrow2Lend"
       inkscape:isstock="true">
      <path
         transform="matrix(-1.1,0,0,-1.1,-1.1,0)"
         d="M 8.7185878,4.0337352 -2.2072895,0.01601326 8.7185884,-4.0017078 c -1.7454984,2.3720609 -1.7354408,5.6174519 -6e-7,8.035443 z"
         style="fill:context-stroke;fill-rule:evenodd;stroke:context-stroke;stroke-width:0.625;stroke-linejoin:round"
         id="path67665" />
    </marker>
    <marker
       style="overflow:visible"
       id="marker67657"
       refX="0"
       refY="0"
       orient="auto"
       inkscape:stockid="Arrow2Lend"
       inkscape:isstock="true">
      <path
         transform="matrix(-1.1,0,0,-1.1,-1.1,0)"
         d="M 8.7185878,4.0337352 -2.2072895,0.01601326 8.7185884,-4.0017078 c -1.7454984,2.3720609 -1.7354408,5.6174519 -6e-7,8.035443 z"
         style="fill:context-stroke;fill-rule:evenodd;stroke:context-stroke;stroke-width:0.625;stroke-linejoin:round"
         id="path67655" />
    </marker>
    <marker
       style="overflow:visible"
       id="Arrow2Lend"
       refX="0"
       refY="0"
       orient="auto"
       inkscape:stockid="Arrow2Lend"
       inkscape:isstock="true">
      <path
         transform="matrix(-1.1,0,0,-1.1,-1.1,0)"
         d="M 8.7185878,4.0337352 -2.2072895,0.01601326 8.7185884,-4.0017078 c -1.7454984,2.3720609 -1.7354408,5.6174519 -6e-7,8.035443 z"
         style="fill:context-stroke;fill-rule:evenodd;stroke:context-stroke;stroke-width:0.625;stroke-linejoin:round"
         id="path67400" />
    </marker>
    <marker
       style="overflow:visible"
       id="Arrow1Mend"
       refX="0"
       refY="0"
       orient="auto"
       inkscape:stockid="Arrow1Mend"
       inkscape:isstock="true">
      <path
         transform="matrix(-0.4,0,0,-0.4,-4,0)"
         style="fill:context-stroke;fill-rule:evenodd;stroke:context-stroke;stroke-width:1pt"
         d="M 0,0 5,-5 -12.5,0 5,5 Z"
         id="path67388" />
    </marker>
    <rect
       x="85.333336"
       y="736"
       width="426.66666"
       height="96"
       id="rect39533" />
    <rect
       x="112"
       y="101.33333"
       width="245.47665"
       height="28.505058"
       id="rect6793" />
    <rect
       x="112"
       y="101.33333"
       width="253.07008"
       height="34.564495"
       id="rect11511" />
    <rect
       x="112"
       y="101.33333"
       width="128"
       height="48"
       id="rect6793-7" />
    <rect
       x="112"
       y="101.33333"
       width="298.80997"
       height="33.838398"
       id="rect6793-6" />
    <rect
       x="112"
       y="101.33333"
       width="253.07008"
       height="34.564495"
       id="rect11511-7" />
    <rect
       x="112"
       y="101.33333"
       width="337.4617"
       height="26.842463"
       id="rect11511-7-9" />
    <rect
       x="112"
       y="101.33333"
       width="370.25153"
       height="45.331272"
       id="rect6793-7-7" />
    <rect
       x="112"
       y="101.33333"
       width="245.47665"
       height="28.505058"
       id="rect6793-9" />
    <rect
       x="112"
       y="101.33333"
       width="128"
       height="48"
       id="rect6793-7-9" />
    <rect
       x="112"
       y="101.33333"
       width="172.91821"
       height="45.331264"
       id="rect6793-7-7-9" />
    <rect
       x="112"
       y="101.33333"
       width="253.07008"
       height="34.564495"
       id="rect11511-9" />
    <rect
       x="112"
       y="101.33333"
       width="128"
       height="48"
       id="rect6793-6-7" />
    <rect
       x="112"
       y="101.33333"
       width="253.07008"
       height="34.564495"
       id="rect11511-7-0" />
    <rect
       x="112"
       y="101.33333"
       width="337.4617"
       height="26.842463"
       id="rect11511-7-9-4" />
    <rect
       x="112"
       y="101.33333"
       width="245.47665"
       height="28.505058"
       id="rect30686" />
    <rect
       x="112"
       y="101.33333"
       width="245.47665"
       height="28.505058"
       id="rect31314" />
    <rect
       x="112"
       y="101.33333"
       width="245.47665"
       height="28.505058"
       id="rect31636" />
    <rect
       x="112"
       y="101.33333"
       width="245.47665"
       height="28.505058"
       id="rect31640" />
    <rect
       x="112"
       y="101.33333"
       width="299.5036"
       height="25.36953"
       id="rect32746" />
    <rect
       x="112"
       y="101.33333"
       width="299.5036"
       height="25.36953"
       id="rect35214" />
    <rect
       x="112"
       y="101.33333"
       width="355.79065"
       height="31.791374"
       id="rect35788" />
    <rect
       x="112"
       y="101.33333"
       width="245.47665"
       height="28.505058"
       id="rect31640-4" />
    <rect
       x="112"
       y="101.33333"
       width="432.83694"
       height="36.685585"
       id="rect40917" />
    <rect
       x="112"
       y="101.33333"
       width="432.83694"
       height="36.685585"
       id="rect42459" />
    <rect
       x="112"
       y="101.33333"
       width="253.07008"
       height="34.564495"
       id="rect11511-2" />
    <rect
       x="112"
       y="101.33333"
       width="253.07008"
       height="34.564495"
       id="rect44421" />
    <rect
       x="112"
       y="101.33333"
       width="253.07008"
       height="34.564495"
       id="rect45477" />
    <rect
       x="112"
       y="101.33333"
       width="253.07008"
       height="34.564495"
       id="rect45933" />
    <rect
       x="112"
       y="101.33333"
       width="380.1283"
       height="29.754454"
       id="rect46767" />
    <rect
       x="112"
       y="101.33333"
       width="380.1283"
       height="29.754454"
       id="rect49123" />
    <rect
       x="112"
       y="101.33333"
       width="253.07008"
       height="34.564495"
       id="rect71007" />
    <rect
       x="112"
       y="101.33333"
       width="245.47665"
       height="28.505058"
       id="rect71009" />
    <rect
       x="112"
       y="101.33333"
       width="245.47665"
       height="28.505058"
       id="rect71011" />
    <rect
       x="112"
       y="101.33333"
       width="245.47665"
       height="28.505058"
       id="rect71013" />
    <rect
       x="112"
       y="101.33333"
       width="245.47665"
       height="28.505058"
       id="rect71015" />
    <rect
       x="112"
       y="101.33333"
       width="299.5036"
       height="25.36953"
       id="rect71017" />
    <rect
       x="112"
       y="101.33333"
       width="299.5036"
       height="25.36953"
       id="rect71019" />
    <rect
       x="112"
       y="101.33333"
       width="245.47665"
       height="28.505058"
       id="rect71021" />
    <rect
       x="112"
       y="101.33333"
       width="253.07008"
       height="34.564495"
       id="rect71023" />
    <rect
       x="112"
       y="101.33333"
       width="253.07008"
       height="34.564495"
       id="rect71025" />
    <rect
       x="112"
       y="101.33333"
       width="253.07008"
       height="34.564495"
       id="rect71027" />
    <rect
       x="112"
       y="101.33333"
       width="380.1283"
       height="29.754454"
       id="rect71029" />
    <rect
       x="112"
       y="101.33333"
       width="380.1283"
       height="29.754454"
       id="rect71031" />
    <rect
       x="112"
       y="101.33333"
       width="245.47665"
       height="28.505058"
       id="rect71219" />
    <rect
       x="112"
       y="101.33333"
       width="128"
       height="48"
       id="rect71221" />
    <rect
       x="112"
       y="101.33333"
       width="359.5849"
       height="45.331272"
       id="rect71223" />
    <rect
       x="112"
       y="101.33333"
       width="253.07008"
       height="34.564495"
       id="rect71225" />
    <rect
       x="112"
       y="101.33333"
       width="253.07008"
       height="34.564495"
       id="rect71227" />
    <rect
       x="112"
       y="101.33333"
       width="128"
       height="48"
       id="rect71229" />
    <rect
       x="112"
       y="101.33333"
       width="253.07008"
       height="34.564495"
       id="rect71231" />
    <rect
       x="112"
       y="101.33333"
       width="337.4617"
       height="26.842463"
       id="rect71233" />
    <rect
       x="112"
       y="101.33333"
       width="245.47665"
       height="28.505058"
       id="rect71235" />
    <rect
       x="112"
       y="101.33333"
       width="245.47665"
       height="28.505058"
       id="rect71237" />
    <rect
       x="112"
       y="101.33333"
       width="245.47665"
       height="28.505058"
       id="rect71239" />
    <rect
       x="112"
       y="101.33333"
       width="245.47665"
       height="28.505058"
       id="rect71241" />
    <rect
       x="112"
       y="101.33333"
       width="299.5036"
       height="25.36953"
       id="rect71243" />
    <rect
       x="112"
       y="101.33333"
       width="299.5036"
       height="25.36953"
       id="rect71245" />
    <rect
       x="112"
       y="101.33333"
       width="355.79065"
       height="31.791374"
       id="rect71247" />
    <rect
       x="112"
       y="101.33333"
       width="620.53491"
       height="61.90527"
       id="rect71249" />
    <rect
       x="112"
       y="101.33333"
       width="253.07008"
       height="34.564495"
       id="rect71251" />
    <rect
       x="112"
       y="101.33333"
       width="253.07008"
       height="34.564495"
       id="rect71253" />
    <rect
       x="112"
       y="101.33333"
       width="253.07008"
       height="34.564495"
       id="rect71255" />
    <rect
       x="112"
       y="101.33333"
       width="380.1283"
       height="29.754454"
       id="rect71257" />
    <rect
       x="112"
       y="101.33333"
       width="380.1283"
       height="29.754454"
       id="rect71259" />
    <rect
       x="112"
       y="101.33333"
       width="206.02087"
       height="29.598333"
       id="rect8776" />
    <rect
       x="112"
       y="101.33333"
       width="206.02087"
       height="29.598333"
       id="rect10712" />
    <rect
       x="112"
       y="101.33333"
       width="206.02087"
       height="29.598333"
       id="rect11252" />
    <rect
       x="112"
       y="101.33333"
       width="286.0209"
       height="31.302042"
       id="rect11612" />
    <rect
       x="112"
       y="101.33333"
       width="245.47665"
       height="28.505058"
       id="rect21700" />
    <rect
       x="112"
       y="101.33333"
       width="128"
       height="48"
       id="rect21702" />
    <rect
       x="112"
       y="101.33333"
       width="253.07008"
       height="34.564495"
       id="rect21704" />
    <rect
       x="112"
       y="101.33333"
       width="298.80997"
       height="33.838398"
       id="rect21706" />
    <rect
       x="112"
       y="101.33333"
       width="370.25153"
       height="45.331272"
       id="rect6793-7-7-1" />
    <rect
       x="112"
       y="101.33333"
       width="370.25153"
       height="45.331272"
       id="rect32659" />
    <rect
       x="112"
       y="101.33333"
       width="370.25153"
       height="45.331272"
       id="rect32667" />
    <rect
       x="112"
       y="101.33333"
       width="370.25153"
       height="45.331272"
       id="rect36155" />
    <rect
       x="112"
       y="101.33333"
       width="188.04041"
       height="44.531776"
       id="rect36157" />
    <rect
       x="112"
       y="101.33333"
       width="370.25153"
       height="45.331272"
       id="rect38455" />
    <rect
       x="112"
       y="101.33333"
       width="188.04041"
       height="44.531776"
       id="rect38457" />
    <rect
       x="112"
       y="101.33333"
       width="370.25153"
       height="45.331272"
       id="rect39241" />
    <rect
       x="112"
       y="101.33333"
       width="188.04041"
       height="44.531776"
       id="rect39243" />
    <rect
       x="112"
       y="101.33333"
       width="370.25153"
       height="45.331272"
       id="rect39257" />
    <rect
       x="112"
       y="101.33333"
       width="188.04041"
       height="44.531776"
       id="rect39259" />
    <rect
       x="112"
       y="101.33333"
       width="370.25153"
       height="45.331272"
       id="rect41596" />
    <rect
       x="112"
       y="101.33333"
       width="370.25153"
       height="45.331272"
       id="rect47335" />
    <rect
       x="112"
       y="101.33333"
       width="370.25153"
       height="45.331272"
       id="rect47337" />
    <rect
       x="112"
       y="101.33333"
       width="370.25153"
       height="45.331272"
       id="rect47351" />
    <rect
       x="112"
       y="101.33333"
       width="188.04041"
       height="44.531776"
       id="rect47353" />
    <rect
       x="112"
       y="101.33333"
       width="370.25153"
       height="45.331272"
       id="rect47367" />
    <rect
       x="112"
       y="101.33333"
       width="188.04041"
       height="44.531776"
       id="rect47369" />
    <rect
       x="112"
       y="101.33333"
       width="370.25153"
       height="45.331272"
       id="rect55488" />
    <rect
       x="112"
       y="101.33333"
       width="188.04041"
       height="44.531776"
       id="rect55490" />
    <rect
       x="112"
       y="101.33333"
       width="370.25153"
       height="45.331272"
       id="rect55520" />
    <rect
       x="112"
       y="101.33333"
       width="188.04041"
       height="44.531776"
       id="rect55522" />
    <rect
       x="112"
       y="101.33333"
       width="530.31897"
       height="201.55042"
       id="rect57562" />
    <rect
       x="112"
       y="101.33333"
       width="598.27295"
       height="137.53799"
       id="rect67353" />
    <rect
       x="112"
       y="101.33333"
       width="530.31897"
       height="201.55042"
       id="rect94138" />
    <rect
       x="112"
       y="101.33333"
       width="398.28513"
       height="60.57016"
       id="rect2878" />
    <rect
       x="112"
       y="101.33333"
       width="239.72958"
       height="65.880096"
       id="rect6123" />
    <rect
       x="112"
       y="101.33333"
       width="325.97467"
       height="31.308271"
       id="rect14299" />
    <rect
       x="112"
       y="101.33333"
       width="370.25153"
       height="45.331272"
       id="rect18964" />
    <rect
       x="112"
       y="101.33333"
       width="471.51709"
       height="58.197662"
       id="rect27108" />
    <rect
       x="112"
       y="101.33333"
       width="277.09189"
       height="49.304634"
       id="rect32083" />
    <rect
       x="112"
       y="101.33333"
       width="277.09189"
       height="49.304634"
       id="rect35243" />
    <rect
       x="112"
       y="101.33333"
       width="362.42523"
       height="49.304653"
       id="rect36439" />
    <rect
       x="112"
       y="101.33333"
       width="471.51709"
       height="58.197662"
       id="rect38577" />
    <rect
       x="112"
       y="101.33333"
       width="370.25153"
       height="45.331272"
       id="rect42693" />
    <rect
       x="1515.3333"
       y="811.33337"
       width="277.33334"
       height="85.333336"
       id="rect49485" />
    <rect
       x="112"
       y="101.33333"
       width="370.25153"
       height="45.331272"
       id="rect51166" />
    <rect
       x="112"
       y="101.33333"
       width="297.89594"
       height="63.299473"
       id="rect18964-9" />
    <rect
       x="112"
       y="101.33333"
       width="297.89594"
       height="63.299473"
       id="rect6047" />
  </defs>
  <g
     inkscape:label="Layer 1"
     inkscape:groupmode="layer"
     id="layer1"
     transform="translate(84.666664,-45.155563)">
    <rect
       style="fill:#ffffff;fill-opacity:1;stroke:none;stroke-width:0.352778;stroke-miterlimit:4;stroke-dasharray:none;stroke-opacity:1"
       id="rect54937"
       width="598.3111"
       height="146.75555"
       x="-84.666664"
       y="45.155563" />
    <rect
       style="fill:#ffffff;fill-opacity:1;stroke:#000000;stroke-width:0.352778;stroke-miterlimit:4;stroke-dasharray:none;stroke-opacity:1"
       id="rect54482"
       width="79.022217"
       height="22.577776"
       x="290.6889"
       y="146.75557" />
    <rect
       style="fill:#ffffff;fill-opacity:1;stroke:#000000;stroke-width:0.352778;stroke-miterlimit:4;stroke-dasharray:none;stroke-opacity:1"
       id="rect26312"
       width="132.64449"
       height="33.866665"
       x="237.06665"
       y="62.088902" />
    <rect
       style="fill:#ffffff;fill-opacity:1;stroke:#000000;stroke-width:0.352778;stroke-miterlimit:4;stroke-dasharray:none;stroke-opacity:1"
       id="rect21018"
       width="79.022217"
       height="22.577776"
       x="135.46666"
       y="67.733345" />
    <rect
       style="fill:#d9d9d9;fill-opacity:1;stroke:#000000;stroke-width:0.705556;stroke-miterlimit:4;stroke-dasharray:none;stroke-opacity:1"
       id="rect853"
       width="95.955551"
       height="50.800003"
       x="16.933334"
       y="50.800007" />
    <text
       xml:space="preserve"
       transform="scale(0.26458333)"
       id="text39531"
       style="font-style:normal;font-weight:normal;font-size:40px;line-height:1.25;font-family:sans-serif;white-space:pre;shape-inside:url(#rect39533);fill:#000000;fill-opacity:1;stroke:none" />
    <path
       style="fill:#000000;fill-opacity:1;stroke:none;stroke-width:0.264583px;stroke-linecap:butt;stroke-linejoin:miter;stroke-opacity:1"
       d="M 8.4666687,80.433342 H 124.17777 v 5.644444 l 11.28889,-7.055555 -11.28889,-7.055556 v 5.644444 H 8.4666687 Z"
       id="path23714-3"
       sodipodi:nodetypes="cccccccc" />
    <text
       xml:space="preserve"
       transform="matrix(0.26458333,0,0,0.26458333,-106.59077,44.933826)"
       id="text2876"
       style="font-style:normal;font-weight:normal;font-size:26.6667px;line-height:1.25;font-family:sans-serif;white-space:pre;shape-inside:url(#rect2878);fill:#000000;fill-opacity:1;stroke:none"><tspan
         x="112"
         y="125.66282"
         id="tspan1259">XC Gun Damage Event</tspan></text>
    <text
       xml:space="preserve"
       transform="matrix(0.26458333,0,0,0.26458333,10.534091,27.877043)"
       id="text6121"
       style="font-style:normal;font-weight:normal;font-size:26.6667px;line-height:1.25;font-family:sans-serif;white-space:pre;shape-inside:url(#rect6123);fill:#000000;fill-opacity:1;stroke:none"><tspan
         x="112"
         y="125.66282"
         id="tspan1261">Gun Damage
</tspan><tspan
         x="112"
         y="158.9962"
         id="tspan1263">Event Handler</tspan></text>
    <text
       xml:space="preserve"
       transform="matrix(0.26458333,0,0,0.26458333,5.4680516,-45.331942)"
       id="text10115"
       style="font-style:normal;font-weight:normal;font-size:40px;line-height:1.25;font-family:sans-serif;white-space:pre;shape-inside:url(#rect10117);fill:#000000;fill-opacity:1;stroke:none" />
    <text
       xml:space="preserve"
       transform="matrix(0.26458333,0,0,0.26458333,-107.39051,55.415692)"
       id="text14297"
       style="font-style:normal;font-weight:normal;font-size:21.3333px;line-height:1.25;font-family:sans-serif;white-space:pre;shape-inside:url(#rect14299);fill:#000000;fill-opacity:1;stroke:none"><tspan
         x="112"
         y="120.797"
         id="tspan1265">(Projectile hits vehicle hitbox)</tspan></text>
    <text
       xml:space="preserve"
       transform="matrix(0.26458333,0,0,0.26458333,114.37905,47.604278)"
       id="text18962"
       style="font-style:normal;font-weight:normal;font-size:26.6667px;line-height:1.25;font-family:sans-serif;white-space:pre;shape-inside:url(#rect18964);fill:#000000;fill-opacity:1;stroke:none"><tspan
         x="112"
         y="125.66282"
         id="tspan1267">DamageRequest</tspan></text>
    <text
       xml:space="preserve"
       transform="matrix(0.26458333,0,0,0.26458333,2.4574383,57.195233)"
       id="text18962-7"
       style="font-style:normal;font-weight:normal;font-size:21.3333px;line-height:1.25;font-family:sans-serif;white-space:pre;shape-inside:url(#rect18964-9);fill:#000000;fill-opacity:1;stroke:none"><tspan
         x="112"
         y="120.797"
         id="tspan1269">DamageRequest from
</tspan><tspan
         x="112"
         y="147.46363"
         id="tspan1271">XC Gun Damage Event</tspan></text>
    <text
       xml:space="preserve"
       style="font-style:normal;font-weight:normal;font-size:10.5833px;line-height:1.25;font-family:sans-serif;fill:#000000;fill-opacity:1;stroke:none;stroke-width:0.264583"
       x="160.86665"
       y="50.800011"
       id="text19254"><tspan
         sodipodi:role="line"
         id="tspan19252"
         style="stroke-width:0.264583"
         x="160.86665"
         y="50.800011" /></text>
    <path
       style="fill:#000000;fill-opacity:1;stroke:none;stroke-width:0.264583px;stroke-linecap:butt;stroke-linejoin:miter;stroke-opacity:1"
       d="m 214.48889,80.433342 h 12.7 v 5.644444 l 11.28889,-7.055555 -11.28889,-7.055556 v 5.644444 h -12.7 z"
       id="path26314"
       sodipodi:nodetypes="cccccccc" />
    <rect
       style="fill:#ffffff;fill-opacity:1;stroke:#000000;stroke-width:0.352778;stroke-miterlimit:4;stroke-dasharray:none;stroke-opacity:1"
       id="rect26453"
       width="28.222237"
       height="11.288893"
       x="242.71111"
       y="79.022232" />
    <rect
       style="fill:#ffffff;fill-opacity:1;stroke:#000000;stroke-width:0.352778;stroke-miterlimit:4;stroke-dasharray:none;stroke-opacity:1"
       id="rect26455"
       width="28.222237"
       height="11.288893"
       x="273.75555"
       y="79.022232" />
    <rect
       style="fill:#ffffff;fill-opacity:1;stroke:#000000;stroke-width:0.352778;stroke-miterlimit:4;stroke-dasharray:none;stroke-opacity:1"
       id="rect26457"
       width="28.222237"
       height="11.288893"
       x="304.79999"
       y="79.022232" />
    <rect
       style="fill:#ffffff;fill-opacity:1;stroke:#000000;stroke-width:0.352778;stroke-miterlimit:4;stroke-dasharray:none;stroke-opacity:1"
       id="rect26459"
       width="28.222237"
       height="11.288893"
       x="335.84445"
       y="79.022232" />
    <text
       xml:space="preserve"
       transform="matrix(0.26458333,0,0,0.26458333,214.22093,39.910535)"
       id="text27106"
       style="font-style:normal;font-weight:normal;font-size:26.6667px;line-height:1.25;font-family:sans-serif;white-space:pre;shape-inside:url(#rect27108);fill:#000000;fill-opacity:1;stroke:none"><tspan
         x="112"
         y="125.66282"
         id="tspan1273">Queue&lt;DamageRequest&gt;</tspan></text>
    <rect
       style="fill:#d9d9d9;fill-opacity:1;stroke:#000000;stroke-width:0.705556;stroke-miterlimit:4;stroke-dasharray:none;stroke-opacity:1"
       id="rect32077"
       width="90.311096"
       height="50.800003"
       x="392.28885"
       y="53.622231" />
    <text
       xml:space="preserve"
       transform="matrix(0.26458333,0,0,0.26458333,368.36386,30.699264)"
       id="text32081"
       style="font-style:normal;font-weight:normal;font-size:26.6667px;line-height:1.25;font-family:sans-serif;white-space:pre;shape-inside:url(#rect32083);fill:#000000;fill-opacity:1;stroke:none"><tspan
         x="112"
         y="125.66282"
         id="tspan1275">System: Damage</tspan></text>
    <rect
       style="fill:#d9d9d9;fill-opacity:1;stroke:#000000;stroke-width:0.705556;stroke-miterlimit:4;stroke-dasharray:none;stroke-opacity:1"
       id="rect35237"
       width="90.311096"
       height="50.800003"
       x="392.28888"
       y="132.64445" />
    <text
       xml:space="preserve"
       transform="matrix(0.26458333,0,0,0.26458333,368.36386,109.72149)"
       id="text35241"
       style="font-style:normal;font-weight:normal;font-size:26.6667px;line-height:1.25;font-family:sans-serif;white-space:pre;shape-inside:url(#rect35243);fill:#000000;fill-opacity:1;stroke:none"><tspan
         x="112"
         y="125.66282"
         id="tspan1277">System: Death</tspan></text>
    <rect
       style="fill:#d9d9d9;fill-opacity:1;stroke:#000000;stroke-width:0.705556;stroke-miterlimit:4;stroke-dasharray:none;stroke-opacity:1"
       id="rect36433"
       width="95.955544"
       height="50.800003"
       x="16.933302"
       y="132.64445" />
    <text
       xml:space="preserve"
       transform="matrix(0.26458333,0,0,0.26458333,-6.7065381,109.72149)"
       id="text36437"
       style="font-style:normal;font-weight:normal;font-size:26.6667px;line-height:1.25;font-family:sans-serif;white-space:pre;shape-inside:url(#rect36439);fill:#000000;fill-opacity:1;stroke:none"><tspan
         x="112"
         y="125.66282"
         id="tspan1279">System: Delete Vehicles</tspan></text>
    <rect
       style="fill:#ffffff;fill-opacity:1;stroke:#000000;stroke-width:0.352778;stroke-miterlimit:4;stroke-dasharray:none;stroke-opacity:1"
       id="rect38563"
       width="132.64449"
       height="33.866665"
       x="135.46663"
       y="141.11111" />
    <rect
       style="fill:#ffffff;fill-opacity:1;stroke:#000000;stroke-width:0.352778;stroke-miterlimit:4;stroke-dasharray:none;stroke-opacity:1"
       id="rect38565"
       width="28.222237"
       height="11.288893"
       x="141.11108"
       y="158.04445" />
    <rect
       style="fill:#ffffff;fill-opacity:1;stroke:#000000;stroke-width:0.352778;stroke-miterlimit:4;stroke-dasharray:none;stroke-opacity:1"
       id="rect38567"
       width="28.222237"
       height="11.288893"
       x="172.15553"
       y="158.04445" />
    <rect
       style="fill:#ffffff;fill-opacity:1;stroke:#000000;stroke-width:0.352778;stroke-miterlimit:4;stroke-dasharray:none;stroke-opacity:1"
       id="rect38569"
       width="28.222237"
       height="11.288893"
       x="203.19997"
       y="158.04445" />
    <rect
       style="fill:#ffffff;fill-opacity:1;stroke:#000000;stroke-width:0.352778;stroke-miterlimit:4;stroke-dasharray:none;stroke-opacity:1"
       id="rect38571"
       width="28.222237"
       height="11.288893"
       x="234.24443"
       y="158.04445" />
    <text
       xml:space="preserve"
       transform="matrix(0.26458333,0,0,0.26458333,112.6209,118.93275)"
       id="text38575"
       style="font-style:normal;font-weight:normal;font-size:26.6667px;line-height:1.25;font-family:sans-serif;white-space:pre;shape-inside:url(#rect38577);fill:#000000;fill-opacity:1;stroke:none"><tspan
         x="112"
         y="125.66282"
         id="tspan1281">Queue&lt;DeleteRequest&gt;</tspan></text>
    <path
       style="fill:#000000;fill-opacity:1;stroke:none;stroke-width:0.264583px;stroke-linecap:butt;stroke-linejoin:miter;stroke-opacity:1"
       d="M 503.76667,159.45556 H 379.58889 V 165.1 L 368.3,158.04445 l 11.28889,-7.05556 v 5.64444 h 124.17778 z"
       id="path41927"
       sodipodi:nodetypes="cccccccc" />
    <path
       style="fill:#000000;fill-opacity:1;stroke:none;stroke-width:0.264583px;stroke-linecap:butt;stroke-linejoin:miter;stroke-opacity:1"
       d="m 369.71111,80.433342 h 124.17778 v 5.644444 l 11.28889,-7.055555 -11.28889,-7.055556 v 5.644444 H 369.71111 Z"
       id="path42479"
       sodipodi:nodetypes="cccccccc" />
    <path
       style="fill:#000000;fill-opacity:1;stroke:none;stroke-width:0.264583px;stroke-linecap:butt;stroke-linejoin:miter;stroke-opacity:1"
       d="m 505.17779,79.022231 v 67.733329 h 5.64444 l -7.05555,11.28889 -7.05556,-11.28889 h 5.64444 V 79.022231 Z"
       id="path43119"
       sodipodi:nodetypes="cccccccc" />
    <text
       xml:space="preserve"
       transform="matrix(0.26458333,0,0,0.26458333,10.664906,-48.095817)"
       id="text45133"
       style="font-style:normal;font-weight:normal;font-size:26.6667px;line-height:1.25;font-family:sans-serif;white-space:pre;shape-inside:url(#rect45135);fill:#000000;fill-opacity:1;stroke:none"><tspan
         x="1515.334"
         y="835.66282"
         id="tspan1283">health &lt; 0 ?</tspan></text>
    <text
       xml:space="preserve"
       transform="matrix(0.26458333,0,0,0.26458333,6.8459023,-127.59453)"
       id="text49483"
       style="font-style:normal;font-weight:normal;font-size:26.6667px;line-height:1.25;font-family:sans-serif;white-space:pre;shape-inside:url(#rect49485);fill:#000000;fill-opacity:1;stroke:none"><tspan
         x="1515.334"
         y="835.66282"
         id="tspan1285">health -= damage</tspan></text>
    <path
       style="fill:#000000;fill-opacity:1;stroke:none;stroke-width:0.264583px;stroke-linecap:butt;stroke-linejoin:miter;stroke-opacity:1"
       d="m 135.46663,159.45557 h -12.7 v 5.64444 l -11.28889,-7.05556 11.28889,-7.05555 v 5.64444 h 12.7 z"
       id="path50641"
       sodipodi:nodetypes="cccccccc" />
    <text
       xml:space="preserve"
       transform="matrix(0.26458333,0,0,0.26458333,274.14353,127.22859)"
       id="text51164"
       style="font-style:normal;font-weight:normal;font-size:26.6667px;line-height:1.25;font-family:sans-serif;white-space:pre;shape-inside:url(#rect51166);fill:#000000;fill-opacity:1;stroke:none"><tspan
         x="112"
         y="125.66282"
         id="tspan1287">DeleteRequest</tspan></text>
    <path
       style="fill:#000000;fill-opacity:1;stroke:none;stroke-width:0.264583px;stroke-linecap:butt;stroke-linejoin:miter;stroke-opacity:1"
       d="m 290.68889,159.45557 h -12.7 v 5.64444 L 266.7,158.04445 277.98889,150.9889 v 5.64444 h 12.7 z"
       id="path54644"
       sodipodi:nodetypes="cccccccc" />
    <text
       xml:space="preserve"
       style="font-style:normal;font-weight:normal;font-size:10.5833px;line-height:1.25;font-family:sans-serif;fill:#000000;fill-opacity:1;stroke:none;stroke-width:0.264583"
       x="321.73334"
       y="163.68889"
       id="text58198"><tspan
         sodipodi:role="line"
         id="tspan58196"
         style="stroke-width:0.264583"
         x="321.73334"
         y="163.68889" /></text>
    <text
       xml:space="preserve"
       transform="matrix(0.26458333,0,0,0.26458333,8.0386463,139.11939)"
       id="text6045"
       style="font-style:normal;font-weight:normal;font-size:21.3333px;line-height:1.25;font-family:sans-serif;white-space:pre;shape-inside:url(#rect6047);fill:#000000;fill-opacity:1;stroke:none"><tspan
         x="112"
         y="120.797"
         id="tspan1289">Delete vehicle logic</tspan></text>
  </g>
</svg>
